<svg xmlns="http://www.w3.org/2000/svg" width="119.942" height="108.099" viewBox="0 0 119.942 108.099">
    <g id="Group_1" data-name="Group 1" transform="translate(-19.023 -34.712)">
        <g id="Group_4" data-name="Group 4" transform="translate(19.023 34.712)">
            <g id="Group_1-2" data-name="Group 1" transform="translate(11.22)">
                <path id="Path_1" data-name="Path 1" d="M1737.575,157.579v66.215a1.753,1.753,0,0,1-1.454,1.729,85.944,85.944,0,0,0-34.332,14.083.16.16,0,0,0,.157.278,91.175,91.175,0,0,1,29.372-7.973,89.135,89.135,0,0,1,10.471-.38,1.58,1.58,0,0,0,1.517-1.519V158.254c-.382-.124-.789-.238-1.218-.337A15.1,15.1,0,0,0,1737.575,157.579Z" transform="translate(-1645.806 -144.992)" fill="#2bd5ef"/>
                <path id="Path_2" data-name="Path 2" d="M1732.29,146.948v71.026a2.865,2.865,0,0,1-.643,1.815,3.227,3.227,0,0,1-1.743,1.048l-.054.017q-2.626.959-5.327,2.092c-8.7,3.659-16.795,9.107-23.279,13.7a.727.727,0,0,1-1.007-1.022,73.257,73.257,0,0,1,12.492-12.956,63.22,63.22,0,0,1,11.783-7.525,2.559,2.559,0,0,0,1.425-2.276l.452-60.482a.292.292,0,0,0-.381-.3q-1.717.564-3.474,1.234a79.443,79.443,0,0,0-15.3,7.85,12.436,12.436,0,0,0-.288-1.843q2.437-1.891,5.269-3.865a89.576,89.576,0,0,1,17.632-9.567.494.494,0,0,1,.067-.023,2.241,2.241,0,0,1,1.606.155,2.119,2.119,0,0,1,.609.485A.662.662,0,0,1,1732.29,146.948Z" transform="translate(-1645.916 -145.787)" fill="#29c9e2"/>
                <path id="Path_3" data-name="Path 3" d="M1655.08,157.579v66.215a1.752,1.752,0,0,0,1.453,1.729,85.956,85.956,0,0,1,34.333,14.083.16.16,0,0,1-.157.278,91.182,91.182,0,0,0-29.372-7.973,89.162,89.162,0,0,0-10.472-.38,1.581,1.581,0,0,1-1.517-1.519V158.254c.383-.124.789-.238,1.219-.337A15.1,15.1,0,0,1,1655.08,157.579Z" transform="translate(-1649.348 -144.992)" fill="#2bd5ef"/>
                <path id="Path_4" data-name="Path 4" d="M1690.817,236.643c-6.485-4.591-14.577-10.039-23.279-13.7q-2.7-1.134-5.327-2.092l-.057-.017a3.233,3.233,0,0,1-1.743-1.048,2.866,2.866,0,0,1-.643-1.815V146.948a.669.669,0,0,1,.165-.439,2.137,2.137,0,0,1,.61-.485,2.244,2.244,0,0,1,1.607-.155.567.567,0,0,1,.067.023,89.582,89.582,0,0,1,17.631,9.567q2.835,1.979,5.269,3.865a12.417,12.417,0,0,0-.287,1.843,79.516,79.516,0,0,0-15.3-7.85q-1.755-.673-3.474-1.234a.291.291,0,0,0-.38.3l.452,60.482a2.556,2.556,0,0,0,1.424,2.276,63.216,63.216,0,0,1,11.782,7.525,73.225,73.225,0,0,1,12.494,12.956A.727.727,0,0,1,1690.817,236.643Z" transform="translate(-1648.643 -145.787)" fill="#29c9e2"/>
            </g>
            <g id="Group_3" data-name="Group 3" transform="translate(0 8.174)">
                <path id="Rectangle_4" data-name="Rectangle 4" d="M2.893,0h49.8a2.89,2.89,0,0,1,2.89,2.89v.394a2.89,2.89,0,0,1-2.89,2.89H2.89A2.89,2.89,0,0,1,0,3.284V2.893A2.893,2.893,0,0,1,2.893,0Z" transform="translate(32.127 93.751)" fill="#002c49"/>
                <path id="Path_5" data-name="Path 5" d="M1748.611,168a.308.308,0,0,0-.313.309V235a2.219,2.219,0,0,1-.492,1.437,2.409,2.409,0,0,1-2.1.741.232.232,0,0,0-.038,0h-22.4a.282.282,0,0,0-.052.005c-2.161.367-4.44.836-6.819,1.432a90.506,90.506,0,0,0-10.166,3.2.309.309,0,0,0,.11.6h45.427a2.464,2.464,0,0,0,1.651-.6,2.492,2.492,0,0,0,.811-1.729V169.64a.3.3,0,0,0-.04-.152,2.345,2.345,0,0,0-1.106-.73A13.57,13.57,0,0,0,1748.611,168Z" transform="translate(-1634.294 -152.458)" fill="#002c49"/>
                <path id="Path_6" data-name="Path 6" d="M1644.462,168a.309.309,0,0,1,.314.309V235a2.211,2.211,0,0,0,.492,1.437,2.407,2.407,0,0,0,2.1.741.237.237,0,0,1,.039,0h22.4a.289.289,0,0,1,.052.005c2.16.367,4.44.836,6.818,1.432a90.428,90.428,0,0,1,10.166,3.2.309.309,0,0,1-.11.6H1641.3a2.407,2.407,0,0,1-2.462-2.333V169.64a.3.3,0,0,1,.038-.152,2.352,2.352,0,0,1,1.107-.73A13.562,13.562,0,0,1,1644.462,168Z" transform="translate(-1638.839 -152.458)" fill="#002c49"/>
                <g id="Group_2" data-name="Group 2" transform="translate(38.517)">
                    <path id="Path_7" data-name="Path 7" d="M1717.72,166.842v40.552a1.91,1.91,0,0,1-.779,1.54l-6.331,4.646a1.909,1.909,0,0,1-3.039-1.538V186.973a1.909,1.909,0,0,0-3.069-1.516l-7.023,5.374a1.913,1.913,0,0,1-2.321,0l-7.023-5.374a1.909,1.909,0,0,0-3.069,1.516v25.069a1.909,1.909,0,0,1-3.038,1.538l-6.331-4.646a1.91,1.91,0,0,1-.779-1.54V166.842a1.909,1.909,0,0,1,3.054-1.527l17.2,12.908a1.909,1.909,0,0,0,2.291,0l17.2-12.908A1.909,1.909,0,0,1,1717.72,166.842Z" transform="translate(-1674.916 -152.666)" fill="#002c49"/>
                    <ellipse id="Ellipse_1" data-name="Ellipse 1" cx="8.232" cy="8.245" rx="8.232" ry="8.245" transform="translate(13.221)" fill="#002c49"/>
                </g>
            </g>
        </g>
    </g>
</svg>